# xmcd CD database file
#
# Track frame offsets:
#	150
#	29620
#	63846
#	79907
#	114381
#	143215
#	179662
#	195625
#	226517
#	253304
#	269955
#
# Disc length: 3814 seconds
#
# Revision: 0
# Processed by: cddbd v1.5.1PL0 Copyright (c) Steve Scherf et al.
# Submitted via: CDex 1.50
#
DISCID=a20ee40b
DTITLE=Ramsey Lewis Trio - Time Flies
DYEAR=2004
DGENRE=Jazz
TTITLE0=Poco Allegretto from Symphony #3 in F Major by Johannes Brahms
TTITLE1=Second Thoughts
TTITLE2=Wade in the Water
TTITLE3=Open My Heart
TTITLE4=Air from Suit #3 by J.S. Bach
TTITLE5=Hide and Seek
TTITLE6=Midnight at the Oasis
TTITLE7=Last Dance
TTITLE8=Estrellita
TTITLE9=The In Crowd
TTITLE10=Hosanna
EXTD=YEAR: 2004
EXTT0=
EXTT1=
EXTT2=
EXTT3=
EXTT4=
EXTT5=
EXTT6=
EXTT7=
EXTT8=
EXTT9=
EXTT10=
PLAYORDER=
